<svg xmlns="http://www.w3.org/2000/svg" viewBox="0 0 100 100">
  <defs>
    <linearGradient id="gold" x1="0%" y1="0%" x2="100%" y2="100%">
      <stop offset="0%" stop-color="#f6c34f" />
      <stop offset="100%" stop-color="#b87a1c" />
    </linearGradient>
    <radialGradient id="glow" cx="50%" cy="40%" r="60%">
      <stop offset="0%" stop-color="rgba(255,230,155,0.95)" />
      <stop offset="100%" stop-color="rgba(255,214,90,0.0)" />
    </radialGradient>
  </defs>
  <rect width="100" height="100" rx="20" fill="#111827" />
  <circle cx="50" cy="40" r="32" fill="url(#glow)" />
  <path d="M50 20c-8 0-14 10-14 18c0 9 8 20 14 20s14-11 14-20c0-8-6-18-14-18zm0 8c3 0 6 5 6 10c0 4-3 9-6 9s-6-5-6-9c0-5 3-10 6-10z" fill="url(#gold)" />
  <path d="M22 65c8-14 18-22 28-22s20 8 28 22c0 0-10-8-28-8s-28 8-28 8z" fill="url(#gold)" />
  <path d="M16 58c14-8 24-10 30-8c-8 0-18 6-30 8zm68 0c-14-8-24-10-30-8c8 0 18 6 30 8z" fill="#d49a28" opacity="0.85" />
  <path d="M18 44c14-10 26-12 32-10c-8 2-18 8-32 10zm64 0c-14-10-26-12-32-10c8 2 18 8 32 10z" fill="#ffd275" opacity="0.8" />
</svg>
